<mxfile host="app.diagrams.net" agent="Mozilla/5.0 (Windows NT 10.0; Win64; x64) AppleWebKit/537.36 (KHTML, like Gecko) Chrome/131.0.0.0 Safari/537.36" version="25.0.3">
  <diagram name="Page-1" id="mtQ3tt4KJSqx1Q9HE_dy">
    <mxGraphModel dx="1434" dy="907" grid="1" gridSize="10" guides="1" tooltips="1" connect="1" arrows="1" fold="1" page="1" pageScale="1" pageWidth="850" pageHeight="1100" math="0" shadow="0">
      <root>
        <mxCell id="0" />
        <mxCell id="1" parent="0" />
        <mxCell id="MbfB3sAUAEK4IuxqDdnN-4" style="edgeStyle=orthogonalEdgeStyle;rounded=0;orthogonalLoop=1;jettySize=auto;html=1;exitX=0.5;exitY=1;exitDx=0;exitDy=0;" edge="1" parent="1" source="MbfB3sAUAEK4IuxqDdnN-2">
          <mxGeometry relative="1" as="geometry">
            <mxPoint x="440" y="100" as="targetPoint" />
          </mxGeometry>
        </mxCell>
        <mxCell id="MbfB3sAUAEK4IuxqDdnN-2" value="" style="ellipse;whiteSpace=wrap;html=1;aspect=fixed;fillColor=#000000;" vertex="1" parent="1">
          <mxGeometry x="420" y="20" width="40" height="40" as="geometry" />
        </mxCell>
        <mxCell id="MbfB3sAUAEK4IuxqDdnN-5" value="" style="ellipse;whiteSpace=wrap;html=1;" vertex="1" parent="1">
          <mxGeometry x="355" y="100" width="170" height="70" as="geometry" />
        </mxCell>
        <mxCell id="MbfB3sAUAEK4IuxqDdnN-6" value="&lt;font style=&quot;font-size: 18px;&quot;&gt;Check room fees&amp;nbsp;&lt;/font&gt;" style="text;html=1;align=center;verticalAlign=middle;whiteSpace=wrap;rounded=0;" vertex="1" parent="1">
          <mxGeometry x="380" y="110" width="120" height="50" as="geometry" />
        </mxCell>
        <mxCell id="MbfB3sAUAEK4IuxqDdnN-7" value="" style="endArrow=classic;html=1;rounded=0;" edge="1" parent="1">
          <mxGeometry width="50" height="50" relative="1" as="geometry">
            <mxPoint x="440" y="170" as="sourcePoint" />
            <mxPoint x="440" y="220" as="targetPoint" />
          </mxGeometry>
        </mxCell>
        <mxCell id="MbfB3sAUAEK4IuxqDdnN-10" style="edgeStyle=orthogonalEdgeStyle;rounded=0;orthogonalLoop=1;jettySize=auto;html=1;exitX=0.5;exitY=1;exitDx=0;exitDy=0;" edge="1" parent="1" source="MbfB3sAUAEK4IuxqDdnN-9">
          <mxGeometry relative="1" as="geometry">
            <mxPoint x="440" y="320" as="targetPoint" />
          </mxGeometry>
        </mxCell>
        <mxCell id="MbfB3sAUAEK4IuxqDdnN-11" style="edgeStyle=orthogonalEdgeStyle;rounded=0;orthogonalLoop=1;jettySize=auto;html=1;exitX=1;exitY=0.5;exitDx=0;exitDy=0;" edge="1" parent="1" source="MbfB3sAUAEK4IuxqDdnN-9">
          <mxGeometry relative="1" as="geometry">
            <mxPoint x="640" y="250" as="targetPoint" />
          </mxGeometry>
        </mxCell>
        <mxCell id="MbfB3sAUAEK4IuxqDdnN-9" value="" style="rhombus;whiteSpace=wrap;html=1;" vertex="1" parent="1">
          <mxGeometry x="400" y="220" width="80" height="60" as="geometry" />
        </mxCell>
        <mxCell id="MbfB3sAUAEK4IuxqDdnN-12" value="&lt;font style=&quot;font-size: 18px;&quot;&gt;Not pay fees&lt;/font&gt;" style="text;html=1;align=center;verticalAlign=middle;whiteSpace=wrap;rounded=0;" vertex="1" parent="1">
          <mxGeometry x="480" y="210" width="150" height="30" as="geometry" />
        </mxCell>
        <mxCell id="MbfB3sAUAEK4IuxqDdnN-13" value="" style="ellipse;whiteSpace=wrap;html=1;" vertex="1" parent="1">
          <mxGeometry x="640" y="212.5" width="140" height="75" as="geometry" />
        </mxCell>
        <mxCell id="MbfB3sAUAEK4IuxqDdnN-15" value="&lt;span style=&quot;font-size: 18px;&quot;&gt;Alert &quot;Not pay fees&quot;&lt;/span&gt;" style="text;html=1;align=center;verticalAlign=middle;whiteSpace=wrap;rounded=0;" vertex="1" parent="1">
          <mxGeometry x="650" y="230" width="120" height="40" as="geometry" />
        </mxCell>
        <mxCell id="MbfB3sAUAEK4IuxqDdnN-16" value="" style="ellipse;whiteSpace=wrap;html=1;" vertex="1" parent="1">
          <mxGeometry x="365" y="320" width="150" height="60" as="geometry" />
        </mxCell>
        <mxCell id="MbfB3sAUAEK4IuxqDdnN-17" value="&lt;font style=&quot;font-size: 19px;&quot;&gt;Give recipt&lt;/font&gt;" style="text;html=1;align=center;verticalAlign=middle;whiteSpace=wrap;rounded=0;" vertex="1" parent="1">
          <mxGeometry x="380" y="330" width="120" height="40" as="geometry" />
        </mxCell>
        <mxCell id="MbfB3sAUAEK4IuxqDdnN-23" style="edgeStyle=orthogonalEdgeStyle;rounded=0;orthogonalLoop=1;jettySize=auto;html=1;exitX=0.5;exitY=1;exitDx=0;exitDy=0;" edge="1" parent="1" source="MbfB3sAUAEK4IuxqDdnN-18">
          <mxGeometry relative="1" as="geometry">
            <mxPoint x="440" y="530" as="targetPoint" />
          </mxGeometry>
        </mxCell>
        <mxCell id="MbfB3sAUAEK4IuxqDdnN-18" value="" style="ellipse;whiteSpace=wrap;html=1;" vertex="1" parent="1">
          <mxGeometry x="360" y="420" width="160" height="70" as="geometry" />
        </mxCell>
        <mxCell id="MbfB3sAUAEK4IuxqDdnN-20" value="" style="endArrow=classic;html=1;rounded=0;entryX=0.5;entryY=0;entryDx=0;entryDy=0;" edge="1" parent="1" target="MbfB3sAUAEK4IuxqDdnN-18">
          <mxGeometry width="50" height="50" relative="1" as="geometry">
            <mxPoint x="440" y="380" as="sourcePoint" />
            <mxPoint x="490" y="330" as="targetPoint" />
          </mxGeometry>
        </mxCell>
        <mxCell id="MbfB3sAUAEK4IuxqDdnN-28" value="" style="edgeStyle=orthogonalEdgeStyle;rounded=0;orthogonalLoop=1;jettySize=auto;html=1;" edge="1" parent="1" source="MbfB3sAUAEK4IuxqDdnN-21" target="MbfB3sAUAEK4IuxqDdnN-17">
          <mxGeometry relative="1" as="geometry" />
        </mxCell>
        <mxCell id="MbfB3sAUAEK4IuxqDdnN-21" value="&lt;font style=&quot;font-size: 19px;&quot;&gt;Get feedback&lt;/font&gt;" style="text;html=1;align=center;verticalAlign=middle;whiteSpace=wrap;rounded=0;" vertex="1" parent="1">
          <mxGeometry x="390" y="420" width="100" height="60" as="geometry" />
        </mxCell>
        <mxCell id="MbfB3sAUAEK4IuxqDdnN-24" value="" style="ellipse;whiteSpace=wrap;html=1;" vertex="1" parent="1">
          <mxGeometry x="342.5" y="530" width="197.5" height="70" as="geometry" />
        </mxCell>
        <mxCell id="MbfB3sAUAEK4IuxqDdnN-25" value="&lt;font style=&quot;font-size: 19px;&quot;&gt;Student Bihaver&lt;/font&gt;" style="text;html=1;align=center;verticalAlign=middle;whiteSpace=wrap;rounded=0;" vertex="1" parent="1">
          <mxGeometry x="365" y="545" width="155" height="40" as="geometry" />
        </mxCell>
        <mxCell id="MbfB3sAUAEK4IuxqDdnN-27" value="" style="endArrow=classic;html=1;rounded=0;exitX=0.5;exitY=1;exitDx=0;exitDy=0;" edge="1" parent="1" source="MbfB3sAUAEK4IuxqDdnN-24">
          <mxGeometry width="50" height="50" relative="1" as="geometry">
            <mxPoint x="410" y="440" as="sourcePoint" />
            <mxPoint x="440" y="640" as="targetPoint" />
          </mxGeometry>
        </mxCell>
        <mxCell id="MbfB3sAUAEK4IuxqDdnN-29" value="" style="endArrow=none;html=1;rounded=0;" edge="1" parent="1">
          <mxGeometry width="50" height="50" relative="1" as="geometry">
            <mxPoint x="700" y="640" as="sourcePoint" />
            <mxPoint x="180" y="640" as="targetPoint" />
          </mxGeometry>
        </mxCell>
      </root>
    </mxGraphModel>
  </diagram>
</mxfile>
